<mxfile host="app.diagrams.net" modified="2023-10-26T05:28:22.305Z" agent="Mozilla/5.0 (Windows NT 10.0; Win64; x64) AppleWebKit/537.36 (KHTML, like Gecko) Chrome/118.0.0.0 Safari/537.36" etag="xXinYxpE1HMEnMI_EivQ" version="22.0.8" type="github">
  <diagram id="R2lEEEUBdFMjLlhIrx00" name="Page-1">
    <mxGraphModel dx="1562" dy="1933" grid="1" gridSize="10" guides="1" tooltips="1" connect="1" arrows="1" fold="1" page="1" pageScale="1" pageWidth="850" pageHeight="1100" math="0" shadow="0" extFonts="Permanent Marker^https://fonts.googleapis.com/css?family=Permanent+Marker">
      <root>
        <mxCell id="0" />
        <mxCell id="1" parent="0" />
        <mxCell id="YOHlFwrLhUCGFyqbjSsb-17" style="rounded=0;orthogonalLoop=1;jettySize=auto;html=1;exitX=0.5;exitY=1;exitDx=0;exitDy=0;entryX=0.5;entryY=0;entryDx=0;entryDy=0;endArrow=none;endFill=0;" edge="1" parent="1" source="YOHlFwrLhUCGFyqbjSsb-1" target="YOHlFwrLhUCGFyqbjSsb-6">
          <mxGeometry relative="1" as="geometry" />
        </mxCell>
        <mxCell id="YOHlFwrLhUCGFyqbjSsb-1" value="地址簿" style="whiteSpace=wrap;html=1;align=center;" vertex="1" parent="1">
          <mxGeometry x="270" y="80" width="100" height="40" as="geometry" />
        </mxCell>
        <mxCell id="YOHlFwrLhUCGFyqbjSsb-16" style="rounded=0;orthogonalLoop=1;jettySize=auto;html=1;exitX=0;exitY=0.5;exitDx=0;exitDy=0;entryX=0.5;entryY=1;entryDx=0;entryDy=0;endArrow=none;endFill=0;edgeStyle=orthogonalEdgeStyle;" edge="1" parent="1" source="YOHlFwrLhUCGFyqbjSsb-2" target="YOHlFwrLhUCGFyqbjSsb-6">
          <mxGeometry relative="1" as="geometry" />
        </mxCell>
        <mxCell id="YOHlFwrLhUCGFyqbjSsb-21" style="rounded=0;orthogonalLoop=1;jettySize=auto;html=1;exitX=0.5;exitY=1;exitDx=0;exitDy=0;entryX=0.5;entryY=0;entryDx=0;entryDy=0;endArrow=none;endFill=0;" edge="1" parent="1" source="YOHlFwrLhUCGFyqbjSsb-2" target="YOHlFwrLhUCGFyqbjSsb-19">
          <mxGeometry relative="1" as="geometry" />
        </mxCell>
        <mxCell id="YOHlFwrLhUCGFyqbjSsb-2" value="用户" style="whiteSpace=wrap;html=1;align=center;" vertex="1" parent="1">
          <mxGeometry x="450" y="450" width="100" height="40" as="geometry" />
        </mxCell>
        <mxCell id="YOHlFwrLhUCGFyqbjSsb-10" style="rounded=0;orthogonalLoop=1;jettySize=auto;html=1;exitX=1;exitY=0.5;exitDx=0;exitDy=0;entryX=0;entryY=0.5;entryDx=0;entryDy=0;endArrow=none;endFill=0;" edge="1" parent="1" source="YOHlFwrLhUCGFyqbjSsb-3" target="YOHlFwrLhUCGFyqbjSsb-8">
          <mxGeometry relative="1" as="geometry" />
        </mxCell>
        <mxCell id="YOHlFwrLhUCGFyqbjSsb-14" style="rounded=0;orthogonalLoop=1;jettySize=auto;html=1;exitX=0.5;exitY=1;exitDx=0;exitDy=0;entryX=0.5;entryY=0;entryDx=0;entryDy=0;endArrow=none;endFill=0;" edge="1" parent="1" source="YOHlFwrLhUCGFyqbjSsb-3" target="YOHlFwrLhUCGFyqbjSsb-7">
          <mxGeometry relative="1" as="geometry" />
        </mxCell>
        <mxCell id="YOHlFwrLhUCGFyqbjSsb-3" value="邮件账号" style="whiteSpace=wrap;html=1;align=center;" vertex="1" parent="1">
          <mxGeometry x="450" y="190" width="100" height="40" as="geometry" />
        </mxCell>
        <mxCell id="YOHlFwrLhUCGFyqbjSsb-11" style="rounded=0;orthogonalLoop=1;jettySize=auto;html=1;exitX=0;exitY=0.5;exitDx=0;exitDy=0;entryX=1;entryY=0.5;entryDx=0;entryDy=0;endArrow=none;endFill=0;" edge="1" parent="1" source="YOHlFwrLhUCGFyqbjSsb-4" target="YOHlFwrLhUCGFyqbjSsb-8">
          <mxGeometry relative="1" as="geometry" />
        </mxCell>
        <mxCell id="YOHlFwrLhUCGFyqbjSsb-12" style="edgeStyle=orthogonalEdgeStyle;rounded=0;orthogonalLoop=1;jettySize=auto;html=1;exitX=0.5;exitY=1;exitDx=0;exitDy=0;entryX=0.5;entryY=0;entryDx=0;entryDy=0;endArrow=none;endFill=0;" edge="1" parent="1" source="YOHlFwrLhUCGFyqbjSsb-4" target="YOHlFwrLhUCGFyqbjSsb-9">
          <mxGeometry relative="1" as="geometry" />
        </mxCell>
        <mxCell id="YOHlFwrLhUCGFyqbjSsb-4" value="邮件" style="whiteSpace=wrap;html=1;align=center;" vertex="1" parent="1">
          <mxGeometry x="740" y="190" width="100" height="40" as="geometry" />
        </mxCell>
        <mxCell id="YOHlFwrLhUCGFyqbjSsb-5" value="附件" style="whiteSpace=wrap;html=1;align=center;" vertex="1" parent="1">
          <mxGeometry x="740" y="400" width="100" height="40" as="geometry" />
        </mxCell>
        <mxCell id="YOHlFwrLhUCGFyqbjSsb-23" style="rounded=0;orthogonalLoop=1;jettySize=auto;html=1;exitX=0;exitY=0.5;exitDx=0;exitDy=0;entryX=1;entryY=0.5;entryDx=0;entryDy=0;endArrow=none;endFill=0;" edge="1" parent="1" source="YOHlFwrLhUCGFyqbjSsb-6" target="YOHlFwrLhUCGFyqbjSsb-22">
          <mxGeometry relative="1" as="geometry" />
        </mxCell>
        <mxCell id="YOHlFwrLhUCGFyqbjSsb-6" value="拥有1" style="shape=rhombus;perimeter=rhombusPerimeter;whiteSpace=wrap;html=1;align=center;" vertex="1" parent="1">
          <mxGeometry x="260" y="320" width="120" height="60" as="geometry" />
        </mxCell>
        <mxCell id="YOHlFwrLhUCGFyqbjSsb-15" style="rounded=0;orthogonalLoop=1;jettySize=auto;html=1;exitX=0.5;exitY=1;exitDx=0;exitDy=0;entryX=0.5;entryY=0;entryDx=0;entryDy=0;endArrow=none;endFill=0;" edge="1" parent="1" source="YOHlFwrLhUCGFyqbjSsb-7" target="YOHlFwrLhUCGFyqbjSsb-2">
          <mxGeometry relative="1" as="geometry" />
        </mxCell>
        <mxCell id="YOHlFwrLhUCGFyqbjSsb-7" value="拥有2" style="shape=rhombus;perimeter=rhombusPerimeter;whiteSpace=wrap;html=1;align=center;" vertex="1" parent="1">
          <mxGeometry x="440" y="320" width="120" height="60" as="geometry" />
        </mxCell>
        <mxCell id="YOHlFwrLhUCGFyqbjSsb-8" value="包含" style="shape=rhombus;perimeter=rhombusPerimeter;whiteSpace=wrap;html=1;align=center;" vertex="1" parent="1">
          <mxGeometry x="590" y="180" width="120" height="60" as="geometry" />
        </mxCell>
        <mxCell id="YOHlFwrLhUCGFyqbjSsb-13" style="edgeStyle=orthogonalEdgeStyle;rounded=0;orthogonalLoop=1;jettySize=auto;html=1;exitX=0.5;exitY=1;exitDx=0;exitDy=0;entryX=0.5;entryY=0;entryDx=0;entryDy=0;endArrow=none;endFill=0;" edge="1" parent="1" source="YOHlFwrLhUCGFyqbjSsb-9" target="YOHlFwrLhUCGFyqbjSsb-5">
          <mxGeometry relative="1" as="geometry" />
        </mxCell>
        <mxCell id="YOHlFwrLhUCGFyqbjSsb-9" value="属于" style="shape=rhombus;perimeter=rhombusPerimeter;whiteSpace=wrap;html=1;align=center;" vertex="1" parent="1">
          <mxGeometry x="730" y="290" width="120" height="60" as="geometry" />
        </mxCell>
        <mxCell id="YOHlFwrLhUCGFyqbjSsb-20" style="rounded=0;orthogonalLoop=1;jettySize=auto;html=1;exitX=0;exitY=0.5;exitDx=0;exitDy=0;entryX=1;entryY=0.5;entryDx=0;entryDy=0;endArrow=none;endFill=0;" edge="1" parent="1" source="YOHlFwrLhUCGFyqbjSsb-18" target="YOHlFwrLhUCGFyqbjSsb-7">
          <mxGeometry relative="1" as="geometry" />
        </mxCell>
        <mxCell id="YOHlFwrLhUCGFyqbjSsb-18" value="用户名" style="ellipse;whiteSpace=wrap;html=1;align=center;" vertex="1" parent="1">
          <mxGeometry x="590" y="330" width="100" height="40" as="geometry" />
        </mxCell>
        <mxCell id="YOHlFwrLhUCGFyqbjSsb-19" value="用户密码" style="ellipse;whiteSpace=wrap;html=1;align=center;" vertex="1" parent="1">
          <mxGeometry x="450" y="550" width="100" height="40" as="geometry" />
        </mxCell>
        <mxCell id="YOHlFwrLhUCGFyqbjSsb-22" value="用户名" style="ellipse;whiteSpace=wrap;html=1;align=center;" vertex="1" parent="1">
          <mxGeometry x="120" y="380" width="100" height="40" as="geometry" />
        </mxCell>
        <mxCell id="YOHlFwrLhUCGFyqbjSsb-25" style="rounded=0;orthogonalLoop=1;jettySize=auto;html=1;exitX=1;exitY=0.5;exitDx=0;exitDy=0;entryX=0;entryY=0.5;entryDx=0;entryDy=0;endArrow=none;endFill=0;" edge="1" parent="1" source="YOHlFwrLhUCGFyqbjSsb-24" target="YOHlFwrLhUCGFyqbjSsb-6">
          <mxGeometry relative="1" as="geometry" />
        </mxCell>
        <mxCell id="YOHlFwrLhUCGFyqbjSsb-24" value="联系人编号" style="ellipse;whiteSpace=wrap;html=1;align=center;" vertex="1" parent="1">
          <mxGeometry x="110" y="300" width="100" height="40" as="geometry" />
        </mxCell>
        <mxCell id="YOHlFwrLhUCGFyqbjSsb-33" style="rounded=0;orthogonalLoop=1;jettySize=auto;html=1;exitX=1;exitY=0.5;exitDx=0;exitDy=0;entryX=0;entryY=0.5;entryDx=0;entryDy=0;endArrow=none;endFill=0;" edge="1" parent="1" source="YOHlFwrLhUCGFyqbjSsb-26" target="YOHlFwrLhUCGFyqbjSsb-1">
          <mxGeometry relative="1" as="geometry" />
        </mxCell>
        <mxCell id="YOHlFwrLhUCGFyqbjSsb-26" value="姓名" style="ellipse;whiteSpace=wrap;html=1;align=center;" vertex="1" parent="1">
          <mxGeometry x="140" y="100" width="100" height="40" as="geometry" />
        </mxCell>
        <mxCell id="YOHlFwrLhUCGFyqbjSsb-34" style="rounded=0;orthogonalLoop=1;jettySize=auto;html=1;exitX=1;exitY=0.5;exitDx=0;exitDy=0;entryX=0;entryY=0.5;entryDx=0;entryDy=0;endArrow=none;endFill=0;" edge="1" parent="1" source="YOHlFwrLhUCGFyqbjSsb-27" target="YOHlFwrLhUCGFyqbjSsb-1">
          <mxGeometry relative="1" as="geometry" />
        </mxCell>
        <mxCell id="YOHlFwrLhUCGFyqbjSsb-27" value="电话" style="ellipse;whiteSpace=wrap;html=1;align=center;" vertex="1" parent="1">
          <mxGeometry x="90" y="30" width="100" height="40" as="geometry" />
        </mxCell>
        <mxCell id="YOHlFwrLhUCGFyqbjSsb-35" style="rounded=0;orthogonalLoop=1;jettySize=auto;html=1;exitX=0.5;exitY=1;exitDx=0;exitDy=0;endArrow=none;endFill=0;" edge="1" parent="1" source="YOHlFwrLhUCGFyqbjSsb-28">
          <mxGeometry relative="1" as="geometry">
            <mxPoint x="270" y="100" as="targetPoint" />
          </mxGeometry>
        </mxCell>
        <mxCell id="YOHlFwrLhUCGFyqbjSsb-28" value="单位地址" style="ellipse;whiteSpace=wrap;html=1;align=center;" vertex="1" parent="1">
          <mxGeometry x="120" y="-30" width="100" height="40" as="geometry" />
        </mxCell>
        <mxCell id="YOHlFwrLhUCGFyqbjSsb-36" style="rounded=0;orthogonalLoop=1;jettySize=auto;html=1;exitX=0.5;exitY=1;exitDx=0;exitDy=0;entryX=0.5;entryY=0;entryDx=0;entryDy=0;endArrow=none;endFill=0;" edge="1" parent="1" source="YOHlFwrLhUCGFyqbjSsb-29" target="YOHlFwrLhUCGFyqbjSsb-1">
          <mxGeometry relative="1" as="geometry" />
        </mxCell>
        <mxCell id="YOHlFwrLhUCGFyqbjSsb-29" value="邮件地址1" style="ellipse;whiteSpace=wrap;html=1;align=center;" vertex="1" parent="1">
          <mxGeometry x="225" y="-70" width="100" height="40" as="geometry" />
        </mxCell>
        <mxCell id="YOHlFwrLhUCGFyqbjSsb-37" style="rounded=0;orthogonalLoop=1;jettySize=auto;html=1;exitX=0.5;exitY=1;exitDx=0;exitDy=0;endArrow=none;endFill=0;" edge="1" parent="1" source="YOHlFwrLhUCGFyqbjSsb-30">
          <mxGeometry relative="1" as="geometry">
            <mxPoint x="320" y="70" as="targetPoint" />
          </mxGeometry>
        </mxCell>
        <mxCell id="YOHlFwrLhUCGFyqbjSsb-30" value="邮件地址2" style="ellipse;whiteSpace=wrap;html=1;align=center;" vertex="1" parent="1">
          <mxGeometry x="340" y="-60" width="100" height="40" as="geometry" />
        </mxCell>
        <mxCell id="YOHlFwrLhUCGFyqbjSsb-38" style="rounded=0;orthogonalLoop=1;jettySize=auto;html=1;exitX=0.5;exitY=1;exitDx=0;exitDy=0;entryX=0.5;entryY=0;entryDx=0;entryDy=0;endArrow=none;endFill=0;" edge="1" parent="1" source="YOHlFwrLhUCGFyqbjSsb-31" target="YOHlFwrLhUCGFyqbjSsb-1">
          <mxGeometry relative="1" as="geometry" />
        </mxCell>
        <mxCell id="YOHlFwrLhUCGFyqbjSsb-31" value="邮件地址3" style="ellipse;whiteSpace=wrap;html=1;align=center;" vertex="1" parent="1">
          <mxGeometry x="410" y="-10" width="100" height="40" as="geometry" />
        </mxCell>
        <mxCell id="YOHlFwrLhUCGFyqbjSsb-51" style="rounded=0;orthogonalLoop=1;jettySize=auto;html=1;exitX=0.5;exitY=1;exitDx=0;exitDy=0;entryX=0.5;entryY=0;entryDx=0;entryDy=0;endArrow=none;endFill=0;" edge="1" parent="1" source="YOHlFwrLhUCGFyqbjSsb-39" target="YOHlFwrLhUCGFyqbjSsb-4">
          <mxGeometry relative="1" as="geometry" />
        </mxCell>
        <mxCell id="YOHlFwrLhUCGFyqbjSsb-39" value="发件人地址" style="ellipse;whiteSpace=wrap;html=1;align=center;" vertex="1" parent="1">
          <mxGeometry x="680" y="90" width="100" height="40" as="geometry" />
        </mxCell>
        <mxCell id="YOHlFwrLhUCGFyqbjSsb-42" style="rounded=0;orthogonalLoop=1;jettySize=auto;html=1;exitX=0.5;exitY=1;exitDx=0;exitDy=0;entryX=0.5;entryY=0;entryDx=0;entryDy=0;endArrow=none;endFill=0;" edge="1" parent="1" source="YOHlFwrLhUCGFyqbjSsb-40" target="YOHlFwrLhUCGFyqbjSsb-3">
          <mxGeometry relative="1" as="geometry" />
        </mxCell>
        <mxCell id="YOHlFwrLhUCGFyqbjSsb-40" value="邮件密码" style="ellipse;whiteSpace=wrap;html=1;align=center;" vertex="1" parent="1">
          <mxGeometry x="480" y="90" width="100" height="40" as="geometry" />
        </mxCell>
        <mxCell id="YOHlFwrLhUCGFyqbjSsb-43" style="rounded=0;orthogonalLoop=1;jettySize=auto;html=1;exitX=0.5;exitY=1;exitDx=0;exitDy=0;endArrow=none;endFill=0;" edge="1" parent="1" source="YOHlFwrLhUCGFyqbjSsb-41">
          <mxGeometry relative="1" as="geometry">
            <mxPoint x="500" y="190" as="targetPoint" />
          </mxGeometry>
        </mxCell>
        <mxCell id="YOHlFwrLhUCGFyqbjSsb-41" value="邮件地址" style="ellipse;whiteSpace=wrap;html=1;align=center;" vertex="1" parent="1">
          <mxGeometry x="375" y="130" width="100" height="40" as="geometry" />
        </mxCell>
        <mxCell id="YOHlFwrLhUCGFyqbjSsb-57" style="rounded=0;orthogonalLoop=1;jettySize=auto;html=1;exitX=0;exitY=0.5;exitDx=0;exitDy=0;entryX=1;entryY=0.5;entryDx=0;entryDy=0;endArrow=none;endFill=0;" edge="1" parent="1" source="YOHlFwrLhUCGFyqbjSsb-45" target="YOHlFwrLhUCGFyqbjSsb-9">
          <mxGeometry relative="1" as="geometry" />
        </mxCell>
        <mxCell id="YOHlFwrLhUCGFyqbjSsb-45" value="邮件号" style="ellipse;whiteSpace=wrap;html=1;align=center;" vertex="1" parent="1">
          <mxGeometry x="900" y="320" width="100" height="40" as="geometry" />
        </mxCell>
        <mxCell id="YOHlFwrLhUCGFyqbjSsb-52" style="rounded=0;orthogonalLoop=1;jettySize=auto;html=1;exitX=0.5;exitY=1;exitDx=0;exitDy=0;endArrow=none;endFill=0;" edge="1" parent="1" source="YOHlFwrLhUCGFyqbjSsb-46">
          <mxGeometry relative="1" as="geometry">
            <mxPoint x="790" y="190" as="targetPoint" />
          </mxGeometry>
        </mxCell>
        <mxCell id="YOHlFwrLhUCGFyqbjSsb-46" value="收件人地址" style="ellipse;whiteSpace=wrap;html=1;align=center;" vertex="1" parent="1">
          <mxGeometry x="800" y="50" width="100" height="40" as="geometry" />
        </mxCell>
        <mxCell id="YOHlFwrLhUCGFyqbjSsb-53" style="rounded=0;orthogonalLoop=1;jettySize=auto;html=1;exitX=0;exitY=0.5;exitDx=0;exitDy=0;endArrow=none;endFill=0;" edge="1" parent="1" source="YOHlFwrLhUCGFyqbjSsb-47">
          <mxGeometry relative="1" as="geometry">
            <mxPoint x="790" y="190" as="targetPoint" />
          </mxGeometry>
        </mxCell>
        <mxCell id="YOHlFwrLhUCGFyqbjSsb-47" value="邮件状态" style="ellipse;whiteSpace=wrap;html=1;align=center;" vertex="1" parent="1">
          <mxGeometry x="910" y="100" width="100" height="40" as="geometry" />
        </mxCell>
        <mxCell id="YOHlFwrLhUCGFyqbjSsb-54" style="rounded=0;orthogonalLoop=1;jettySize=auto;html=1;exitX=0;exitY=0.5;exitDx=0;exitDy=0;entryX=1;entryY=0.5;entryDx=0;entryDy=0;endArrow=none;endFill=0;" edge="1" parent="1" source="YOHlFwrLhUCGFyqbjSsb-48" target="YOHlFwrLhUCGFyqbjSsb-4">
          <mxGeometry relative="1" as="geometry" />
        </mxCell>
        <mxCell id="YOHlFwrLhUCGFyqbjSsb-48" value="邮件内容" style="ellipse;whiteSpace=wrap;html=1;align=center;" vertex="1" parent="1">
          <mxGeometry x="920" y="150" width="100" height="40" as="geometry" />
        </mxCell>
        <mxCell id="YOHlFwrLhUCGFyqbjSsb-55" style="rounded=0;orthogonalLoop=1;jettySize=auto;html=1;exitX=0;exitY=0.5;exitDx=0;exitDy=0;endArrow=none;endFill=0;" edge="1" parent="1" source="YOHlFwrLhUCGFyqbjSsb-49">
          <mxGeometry relative="1" as="geometry">
            <mxPoint x="840" y="210" as="targetPoint" />
          </mxGeometry>
        </mxCell>
        <mxCell id="YOHlFwrLhUCGFyqbjSsb-49" value="发送时间" style="ellipse;whiteSpace=wrap;html=1;align=center;" vertex="1" parent="1">
          <mxGeometry x="900" y="200" width="100" height="40" as="geometry" />
        </mxCell>
        <mxCell id="YOHlFwrLhUCGFyqbjSsb-56" style="rounded=0;orthogonalLoop=1;jettySize=auto;html=1;exitX=0;exitY=0.5;exitDx=0;exitDy=0;endArrow=none;endFill=0;" edge="1" parent="1" source="YOHlFwrLhUCGFyqbjSsb-50">
          <mxGeometry relative="1" as="geometry">
            <mxPoint x="840" y="210" as="targetPoint" />
          </mxGeometry>
        </mxCell>
        <mxCell id="YOHlFwrLhUCGFyqbjSsb-50" value="接收时间" style="ellipse;whiteSpace=wrap;html=1;align=center;" vertex="1" parent="1">
          <mxGeometry x="860" y="250" width="100" height="40" as="geometry" />
        </mxCell>
        <mxCell id="YOHlFwrLhUCGFyqbjSsb-63" style="rounded=0;orthogonalLoop=1;jettySize=auto;html=1;exitX=0;exitY=0.5;exitDx=0;exitDy=0;entryX=1;entryY=0.5;entryDx=0;entryDy=0;endArrow=none;endFill=0;" edge="1" parent="1" source="YOHlFwrLhUCGFyqbjSsb-58" target="YOHlFwrLhUCGFyqbjSsb-9">
          <mxGeometry relative="1" as="geometry" />
        </mxCell>
        <mxCell id="YOHlFwrLhUCGFyqbjSsb-58" value="附件号" style="ellipse;whiteSpace=wrap;html=1;align=center;" vertex="1" parent="1">
          <mxGeometry x="900" y="380" width="100" height="40" as="geometry" />
        </mxCell>
        <mxCell id="YOHlFwrLhUCGFyqbjSsb-62" style="rounded=0;orthogonalLoop=1;jettySize=auto;html=1;exitX=0.5;exitY=0;exitDx=0;exitDy=0;endArrow=none;endFill=0;" edge="1" parent="1" source="YOHlFwrLhUCGFyqbjSsb-59">
          <mxGeometry relative="1" as="geometry">
            <mxPoint x="790" y="440" as="targetPoint" />
          </mxGeometry>
        </mxCell>
        <mxCell id="YOHlFwrLhUCGFyqbjSsb-59" value="附件文件名" style="ellipse;whiteSpace=wrap;html=1;align=center;" vertex="1" parent="1">
          <mxGeometry x="810" y="500" width="100" height="40" as="geometry" />
        </mxCell>
        <mxCell id="YOHlFwrLhUCGFyqbjSsb-61" style="rounded=0;orthogonalLoop=1;jettySize=auto;html=1;exitX=0.5;exitY=0;exitDx=0;exitDy=0;entryX=0.5;entryY=1;entryDx=0;entryDy=0;endArrow=none;endFill=0;" edge="1" parent="1" source="YOHlFwrLhUCGFyqbjSsb-60" target="YOHlFwrLhUCGFyqbjSsb-5">
          <mxGeometry relative="1" as="geometry" />
        </mxCell>
        <mxCell id="YOHlFwrLhUCGFyqbjSsb-60" value="附件大小" style="ellipse;whiteSpace=wrap;html=1;align=center;" vertex="1" parent="1">
          <mxGeometry x="680" y="500" width="100" height="40" as="geometry" />
        </mxCell>
      </root>
    </mxGraphModel>
  </diagram>
</mxfile>
